<svg width="127" height="144" xmlns="http://www.w3.org/2000/svg"><path fill="#eb743b" d="M66 0v143.997l61.006-35V35z"/><path fill="#353070" d="M61 0L0 35v73.997l61 35z"/><g opacity=".07"><path d="M83.302 91.734a2.102 2.102 0 011.819-1.03c.378 0 .752.104 1.078.297a2.12 2.12 0 01.735 2.898 2.114 2.114 0 01-3.632-2.165zm12.603 22.362a2.121 2.121 0 01-2.981-.225 2.117 2.117 0 01.231-2.981 2.108 2.108 0 012.978.228c.368.43.547.976.504 1.538s-.302 1.072-.732 1.44zM75.001 45.611zm11.379 9.646a2.128 2.128 0 012.916-.656 2.116 2.116 0 01-2.259 3.58 2.128 2.128 0 01-.657-2.924zm6.379-20.187c-.6.951-1.938 1.271-2.912.653l-.096-.063a2.108 2.108 0 01-.558-2.851 2.095 2.095 0 011.784-.98 2.11 2.11 0 011.782 3.241zm16.767 11.598a2.096 2.096 0 011.783-.98 2.107 2.107 0 011.783 3.239c-.598.951-1.938 1.272-2.912.653l-.094-.063a2.102 2.102 0 01-.56-2.849zm0 23.463a2.096 2.096 0 011.783-.98c.399 0 .79.112 1.125.326a2.105 2.105 0 01.658 2.914c-.598.95-1.938 1.271-2.912.652l-.094-.063a2.102 2.102 0 01-.56-2.849zm0 26.303a2.098 2.098 0 011.783-.979 2.107 2.107 0 011.783 3.239c-.598.951-1.938 1.271-2.912.653l-.094-.063a2.103 2.103 0 01-.56-2.85z"/><path d="M99.176 106.107a6.11 6.11 0 00-8.631-.662 6.123 6.123 0 00-2.087 5.397c-1.948.7-4.258 1.365-5.328 1.332-.821-.044-1.302-.346-2.224-.972-1.172-.795-2.418-1.512-4.149-1.847 2.936-2.761 6.009-6.83 8.584-12.834a6.147 6.147 0 005.038-2.972c1.725-2.896.773-6.659-2.124-8.394a6.128 6.128 0 00-3.134-.864 6.156 6.156 0 00-5.261 2.986 6.079 6.079 0 00-.678 4.636 6.07 6.07 0 002.302 3.429c-4.053 9.218-9.219 13.081-12.565 14.685a1.975 1.975 0 00-.36.168c-1.187.531-2.05.704-2.559.808v4c.275-.03 1.885-.118 4.247-1.192 5.348-1.357 6.839-.354 8.407.709 1.021.692 2.291 1.554 4.263 1.656.1.005.204.008.309.008 2.109 0 5.172-1.022 7.021-1.723a6.134 6.134 0 004.285 1.75 6.112 6.112 0 003.983-1.476 6.075 6.075 0 002.118-4.176 6.071 6.071 0 00-1.457-4.452zM83.302 89.331a2.102 2.102 0 011.819-1.03c.378 0 .752.104 1.078.297a2.12 2.12 0 01.735 2.898 2.114 2.114 0 01-3.632-2.165zm12.603 22.363a2.121 2.121 0 01-2.981-.225 2.117 2.117 0 01.231-2.981 2.08 2.08 0 011.373-.512c.617 0 1.201.269 1.605.74.368.43.547.976.504 1.538s-.302 1.072-.732 1.44zM75.001 43.205zm21.945-13.001a6.122 6.122 0 00-5.973-4.788 6.076 6.076 0 00-5.174 2.85 6.112 6.112 0 00.144 6.759c-3.646 4.124-8.706 4.313-9.942 4.293-3.692-1.604-7.234-2.164-10.005-2.317v3.996c2.441.143 5.553.685 8.748 2.136.005.002.01.002.015.005 3.445 1.563 6.334 3.928 8.607 7.041a6.309 6.309 0 00-.382.538c-1.796 2.854-.942 6.644 1.903 8.444.98.622 2.111.951 3.27.951a6.105 6.105 0 005.183-2.852c1.806-2.851.951-6.642-1.908-8.453-1.384-.871-3.092-1.113-4.667-.755-1.538-2.154-3.323-4.017-5.345-5.566 2.517-.778 5.401-2.269 7.78-5.096a6.141 6.141 0 001.77.267 6.08 6.08 0 005.172-2.849 6.061 6.061 0 00.804-4.604zM86.375 52.852a2.128 2.128 0 012.916-.656 2.116 2.116 0 01-2.259 3.58 2.128 2.128 0 01-.657-2.924zm6.379-20.188c-.6.951-1.938 1.271-2.912.653l-.096-.063a2.108 2.108 0 01-.558-2.851 2.095 2.095 0 011.784-.98 2.11 2.11 0 011.782 3.241z"/><path d="M105.646 71.188a6.04 6.04 0 002.109 2.649 6.1 6.1 0 003.551 1.14 6.081 6.081 0 005.173-2.849 6.063 6.063 0 00.805-4.604 6.122 6.122 0 00-5.975-4.788c-.125 0-.25.008-.375.018-.71-3.157-.919-7.769.035-11.265.112.011.225.024.337.024a6.079 6.079 0 005.173-2.849 6.062 6.062 0 00.805-4.604 6.122 6.122 0 00-5.975-4.788 6.079 6.079 0 00-5.173 2.85 6.105 6.105 0 001.025 7.765c.021.02.048.037.071.059-1.349 4.518-1.146 10.324-.036 14.417-.143.132-.294.254-.426.399a6.231 6.231 0 00-.634.824 6.166 6.166 0 00-.71 1.578c-3.371.488-5.198 1.671-6.824 2.729-2.035 1.324-3.961 2.572-9.636 2.665-1.964-.23-3.553-.177-5.29-.116-1.431.052-2.91.106-4.849.003-1.335-.071-2.104-.882-3.458-2.424-1.803-2.055-4.219-4.649-9.369-5.023v4c3.295.3 4.796 1.888 6.356 3.667 1.487 1.694 3.175 3.615 6.256 3.782 2.118.114 3.76.052 5.208.001 2.491-.092 4.453-.161 7.855.684 2.607.643 12.099 9.673 14.773 14.322-.108.142-.219.282-.314.434-1.743 2.755-1.026 6.385 1.619 8.251.072.052.151.104.283.191.981.621 2.11.948 3.268.948a6.081 6.081 0 005.173-2.849 6.06 6.06 0 00.805-4.603 6.122 6.122 0 00-7.518-4.594c-2.561-4.187-8.652-10.455-13.189-13.792 1.813-.628 3.05-1.435 4.212-2.188 1.429-.927 2.616-1.687 4.859-2.064zm3.88-26.925a2.096 2.096 0 011.783-.98 2.107 2.107 0 011.783 3.239c-.598.951-1.938 1.272-2.912.653l-.094-.063a2.102 2.102 0 01-.56-2.849zm0 23.463a2.096 2.096 0 011.783-.98c.399 0 .79.112 1.125.326a2.105 2.105 0 01.658 2.914c-.598.95-1.938 1.271-2.912.652l-.094-.063a2.102 2.102 0 01-.56-2.849zm0 26.303a2.098 2.098 0 011.783-.979 2.107 2.107 0 011.783 3.239c-.598.951-1.938 1.271-2.912.653l-.094-.063a2.103 2.103 0 01-.56-2.85z"/></g><path d="M99.176 109.107a6.11 6.11 0 00-8.631-.662 6.123 6.123 0 00-2.087 5.397c-1.948.7-4.258 1.365-5.328 1.332-.821-.044-1.302-.346-2.224-.972-1.172-.795-2.418-1.512-4.149-1.847 2.936-2.761 6.009-6.83 8.584-12.834a6.147 6.147 0 005.038-2.972c1.725-2.896.773-6.659-2.124-8.394a6.128 6.128 0 00-3.134-.864 6.156 6.156 0 00-5.261 2.986 6.079 6.079 0 00-.678 4.636 6.07 6.07 0 002.302 3.429c-4.053 9.218-9.219 13.081-12.565 14.685a1.975 1.975 0 00-.36.168c-1.187.531-2.05.704-2.559.808v4c.275-.03 1.885-.118 4.247-1.192 5.348-1.357 6.839-.354 8.407.709 1.021.692 2.291 1.554 4.263 1.656.1.005.204.008.309.008 2.109 0 5.172-1.022 7.021-1.723a6.134 6.134 0 004.285 1.75 6.112 6.112 0 003.983-1.476 6.075 6.075 0 002.118-4.176 6.071 6.071 0 00-1.457-4.452zM83.302 92.331a2.102 2.102 0 011.819-1.03c.378 0 .752.104 1.078.297a2.12 2.12 0 01.735 2.898 2.114 2.114 0 01-3.632-2.165zm12.603 22.363a2.121 2.121 0 01-2.981-.225 2.117 2.117 0 01.231-2.981 2.08 2.08 0 011.373-.512c.617 0 1.201.269 1.605.74.368.43.547.976.504 1.538s-.302 1.072-.732 1.44zM96.946 32.208a6.122 6.122 0 00-5.973-4.788 6.076 6.076 0 00-5.174 2.85 6.112 6.112 0 00.144 6.759c-3.646 4.124-8.706 4.313-9.942 4.293-3.692-1.604-7.234-2.164-10.005-2.317v3.996c2.441.144 5.553.686 8.748 2.136.005.002.01.002.015.005 3.445 1.563 6.334 3.928 8.607 7.041a6.309 6.309 0 00-.382.538c-1.796 2.854-.942 6.644 1.903 8.444.98.622 2.111.951 3.27.951a6.105 6.105 0 005.183-2.852c1.806-2.851.951-6.642-1.908-8.453-1.384-.871-3.092-1.113-4.667-.755-1.538-2.154-3.323-4.017-5.345-5.566 2.517-.778 5.401-2.269 7.78-5.096a6.141 6.141 0 001.77.267 6.08 6.08 0 005.172-2.849 6.061 6.061 0 00.804-4.604zM86.375 54.856a2.128 2.128 0 012.916-.656 2.116 2.116 0 01-2.259 3.58 2.128 2.128 0 01-.657-2.924zm6.379-20.188c-.6.951-1.938 1.271-2.912.653l-.096-.063a2.108 2.108 0 01-.558-2.851 2.095 2.095 0 011.784-.98 2.11 2.11 0 011.782 3.241z" fill="#d3562c"/><path d="M105.646 74.188a6.04 6.04 0 002.109 2.649 6.1 6.1 0 003.551 1.14 6.081 6.081 0 005.173-2.849 6.063 6.063 0 00.805-4.604 6.122 6.122 0 00-5.975-4.788c-.125 0-.25.008-.375.018-.71-3.157-.919-7.769.035-11.265.112.011.225.024.337.024a6.079 6.079 0 005.173-2.849 6.062 6.062 0 00.805-4.604 6.122 6.122 0 00-5.975-4.788 6.079 6.079 0 00-5.173 2.85 6.105 6.105 0 001.025 7.765c.021.02.048.037.071.059-1.349 4.518-1.146 10.324-.036 14.417-.143.132-.294.254-.426.399a6.231 6.231 0 00-.634.824 6.166 6.166 0 00-.71 1.578c-3.371.488-5.198 1.671-6.824 2.729-2.035 1.324-3.961 2.572-9.636 2.665-1.964-.23-3.553-.177-5.29-.116-1.431.052-2.91.106-4.849.003-1.335-.071-2.104-.882-3.458-2.424-1.803-2.055-4.219-4.649-9.369-5.023v4c3.295.3 4.796 1.888 6.356 3.667 1.487 1.694 3.175 3.615 6.256 3.782 2.118.114 3.76.052 5.208.001 2.491-.092 4.453-.161 7.855.684 2.607.643 12.099 9.673 14.773 14.322-.108.142-.219.282-.314.434-1.743 2.755-1.026 6.385 1.619 8.251.072.052.151.104.283.191.981.621 2.11.948 3.268.948a6.081 6.081 0 005.173-2.849 6.06 6.06 0 00.805-4.603 6.122 6.122 0 00-7.518-4.594c-2.561-4.187-8.652-10.455-13.189-13.792 1.813-.628 3.05-1.435 4.212-2.188 1.429-.927 2.616-1.687 4.859-2.064zm3.88-26.925a2.096 2.096 0 011.783-.98 2.107 2.107 0 011.783 3.239c-.598.951-1.938 1.272-2.912.653l-.094-.063a2.102 2.102 0 01-.56-2.849zm0 23.463a2.096 2.096 0 011.783-.98c.399 0 .79.112 1.125.326a2.105 2.105 0 01.658 2.914c-.598.95-1.938 1.271-2.912.652l-.094-.063a2.102 2.102 0 01-.56-2.849zm0 26.303a2.098 2.098 0 011.783-.979 2.107 2.107 0 011.783 3.239c-.598.951-1.938 1.271-2.912.653l-.094-.063a2.103 2.103 0 01-.56-2.85z" fill="#d3562c"/><g fill="#fffedb"><path d="M99.176 106.107a6.11 6.11 0 00-8.631-.662 6.123 6.123 0 00-2.087 5.397c-1.948.7-4.258 1.365-5.328 1.332-.821-.044-1.302-.346-2.224-.972-1.172-.795-2.418-1.512-4.149-1.847 2.936-2.761 6.009-6.83 8.584-12.834a6.147 6.147 0 005.038-2.972c1.725-2.896.773-6.659-2.124-8.394a6.128 6.128 0 00-3.134-.864 6.156 6.156 0 00-5.261 2.986 6.079 6.079 0 00-.678 4.636 6.07 6.07 0 002.302 3.429c-4.053 9.218-9.219 13.081-12.565 14.685a1.975 1.975 0 00-.36.168c-1.187.531-2.05.704-2.559.808v4c.275-.03 1.885-.118 4.247-1.192 5.348-1.357 6.839-.354 8.407.709 1.021.692 2.291 1.554 4.263 1.656.1.005.204.008.309.008 2.109 0 5.172-1.022 7.021-1.723a6.134 6.134 0 004.285 1.75 6.112 6.112 0 003.983-1.476 6.075 6.075 0 002.118-4.176 6.071 6.071 0 00-1.457-4.452zM83.302 89.331a2.102 2.102 0 011.819-1.03c.378 0 .752.104 1.078.297a2.12 2.12 0 01.735 2.898 2.114 2.114 0 01-3.632-2.165zm12.603 22.363a2.121 2.121 0 01-2.981-.225 2.117 2.117 0 01.231-2.981 2.08 2.08 0 011.373-.512c.617 0 1.201.269 1.605.74.368.43.547.976.504 1.538s-.302 1.072-.732 1.44zM75.001 43.205zm21.945-13.001a6.122 6.122 0 00-5.973-4.788 6.076 6.076 0 00-5.174 2.85 6.112 6.112 0 00.144 6.759c-3.646 4.124-8.706 4.313-9.942 4.293-3.692-1.604-7.234-2.164-10.005-2.317v3.996c2.441.143 5.553.685 8.748 2.136.005.002.01.002.015.005 3.445 1.563 6.334 3.928 8.607 7.041a6.309 6.309 0 00-.382.538c-1.796 2.854-.942 6.644 1.903 8.444.98.622 2.111.951 3.27.951a6.105 6.105 0 005.183-2.852c1.806-2.851.951-6.642-1.908-8.453-1.384-.871-3.092-1.113-4.667-.755-1.538-2.154-3.323-4.017-5.345-5.566 2.517-.778 5.401-2.269 7.78-5.096a6.141 6.141 0 001.77.267 6.08 6.08 0 005.172-2.849 6.061 6.061 0 00.804-4.604zM86.375 52.852a2.128 2.128 0 012.916-.656 2.116 2.116 0 01-2.259 3.58 2.128 2.128 0 01-.657-2.924zm6.379-20.188c-.6.951-1.938 1.271-2.912.653l-.096-.063a2.108 2.108 0 01-.558-2.851 2.095 2.095 0 011.784-.98 2.11 2.11 0 011.782 3.241z"/><path d="M105.646 71.188a6.04 6.04 0 002.109 2.649 6.1 6.1 0 003.551 1.14 6.081 6.081 0 005.173-2.849 6.063 6.063 0 00.805-4.604 6.122 6.122 0 00-5.975-4.788c-.125 0-.25.008-.375.018-.71-3.157-.919-7.769.035-11.265.112.011.225.024.337.024a6.079 6.079 0 005.173-2.849 6.062 6.062 0 00.805-4.604 6.122 6.122 0 00-5.975-4.788 6.079 6.079 0 00-5.173 2.85 6.105 6.105 0 001.025 7.765c.021.02.048.037.071.059-1.349 4.518-1.146 10.324-.036 14.417-.143.132-.294.254-.426.399a6.231 6.231 0 00-.634.824 6.166 6.166 0 00-.71 1.578c-3.371.488-5.198 1.671-6.824 2.729-2.035 1.324-3.961 2.572-9.636 2.665-1.964-.23-3.553-.177-5.29-.116-1.431.052-2.91.106-4.849.003-1.335-.071-2.104-.882-3.458-2.424-1.803-2.055-4.219-4.649-9.369-5.023v4c3.295.3 4.796 1.888 6.356 3.667 1.487 1.694 3.175 3.615 6.256 3.782 2.118.114 3.76.052 5.208.001 2.491-.092 4.453-.161 7.855.684 2.607.643 12.099 9.673 14.773 14.322-.108.142-.219.282-.314.434-1.743 2.755-1.026 6.385 1.619 8.251.072.052.151.104.283.191.981.621 2.11.948 3.268.948a6.081 6.081 0 005.173-2.849 6.06 6.06 0 00.805-4.603 6.122 6.122 0 00-7.518-4.594c-2.561-4.187-8.652-10.455-13.189-13.792 1.813-.628 3.05-1.435 4.212-2.188 1.429-.927 2.616-1.687 4.859-2.064zm3.88-26.925a2.096 2.096 0 011.783-.98 2.107 2.107 0 011.783 3.239c-.598.951-1.938 1.272-2.912.653l-.094-.063a2.102 2.102 0 01-.56-2.849zm0 23.463a2.096 2.096 0 011.783-.98c.399 0 .79.112 1.125.326a2.105 2.105 0 01.658 2.914c-.598.95-1.938 1.271-2.912.652l-.094-.063a2.102 2.102 0 01-.56-2.849zm0 26.303a2.098 2.098 0 011.783-.979 2.107 2.107 0 011.783 3.239c-.598.951-1.938 1.271-2.912.653l-.094-.063a2.103 2.103 0 01-.56-2.85z"/></g><g opacity=".3" transform="translate(-4.354 -2.823)"><path d="M22.626 69.045a9.67 9.67 0 01-7.04-3.002 9.694 9.694 0 01-2.714-6.956 9.69 9.69 0 013-6.838 9.711 9.711 0 016.753-2.716 9.669 9.669 0 017.04 3.002 9.688 9.688 0 012.715 6.955 9.691 9.691 0 01-3 6.838 9.709 9.709 0 01-6.754 2.717zm-.001-14.512a4.74 4.74 0 00-3.292 1.324 4.728 4.728 0 00-1.462 3.333 4.73 4.73 0 001.323 3.392 4.717 4.717 0 003.432 1.463 4.741 4.741 0 003.293-1.324 4.73 4.73 0 001.462-3.333 4.73 4.73 0 00-1.323-3.392 4.719 4.719 0 00-3.433-1.463zm30.277 45.797H33.559a2 2 0 010-4h19.344a2 2 0 01-.001 4zm0 12.12H33.559a2 2 0 010-4h19.344a2 2 0 01-.001 4z"/><circle cx="22.714" cy="98.328" r="3"/><circle cx="22.714" cy="110.45" r="3"/><path d="M52.902 88.205H33.559a2 2 0 010-4h19.344a2 2 0 01-.001 4z"/><circle cx="22.714" cy="86.205" r="3"/><path d="M45.256 70.846a1.997 1.997 0 01-1.637-3.147c.449-.642.854-1.326 1.202-2.035 2.354-4.8 2.023-10.349-.888-14.844a2 2 0 113.358-2.174c3.627 5.601 4.057 12.797 1.121 18.78a19.465 19.465 0 01-1.516 2.567 1.996 1.996 0 01-1.64.853z"/><path d="M53.086 75.578a2 2 0 01-1.616-3.176 22.283 22.283 0 001.972-3.275c3.668-7.476 2.84-16.26-2.161-22.927a2 2 0 013.199-2.401c5.908 7.876 6.887 18.256 2.554 27.089a26.384 26.384 0 01-2.327 3.865 2 2 0 01-1.621.825zm-15.015-9.759a2 2 0 01-1.743-2.98 7.95 7.95 0 00.271-7.236 2 2 0 113.625-1.689 11.963 11.963 0 01-.407 10.885 2 2 0 01-1.746 1.02z"/></g><g fill="#fffedb" transform="translate(-4.354 -2.823)"><path d="M22.626 66.045a9.67 9.67 0 01-7.04-3.002 9.694 9.694 0 01-2.714-6.956 9.69 9.69 0 013-6.838 9.711 9.711 0 016.753-2.716 9.669 9.669 0 017.04 3.002 9.688 9.688 0 012.715 6.955 9.691 9.691 0 01-3 6.838 9.709 9.709 0 01-6.754 2.717zm-.001-14.512a4.74 4.74 0 00-3.292 1.324 4.728 4.728 0 00-1.462 3.333 4.73 4.73 0 001.323 3.392 4.717 4.717 0 003.432 1.463 4.741 4.741 0 003.293-1.324 4.73 4.73 0 001.462-3.333 4.73 4.73 0 00-1.323-3.392 4.719 4.719 0 00-3.433-1.463zm30.277 45.795H33.559a2 2 0 010-4h19.344a2 2 0 01-.001 4zm0 12.122H33.559a2 2 0 010-4h19.344a2 2 0 01-.001 4z"/><circle cx="22.714" cy="95.328" r="3"/><circle cx="22.714" cy="107.45" r="3"/><path d="M52.902 85.205H33.559a2 2 0 010-4h19.344a2 2 0 01-.001 4z"/><circle cx="22.714" cy="83.205" r="3"/></g><g fill="#eb743b"><path d="M40.902 65.023a1.997 1.997 0 01-1.637-3.147c.449-.642.854-1.326 1.202-2.035 2.354-4.8 2.023-10.349-.888-14.844a2 2 0 113.358-2.174c3.627 5.601 4.057 12.797 1.121 18.78a19.465 19.465 0 01-1.516 2.567 1.996 1.996 0 01-1.64.853z"/><path d="M48.732 69.755a2 2 0 01-1.616-3.176 22.283 22.283 0 001.972-3.275c3.668-7.476 2.84-16.26-2.161-22.927a2 2 0 013.199-2.401c5.908 7.876 6.887 18.256 2.554 27.089a26.384 26.384 0 01-2.327 3.865 2 2 0 01-1.621.825zm-15.015-9.759a2 2 0 01-1.743-2.98 7.95 7.95 0 00.271-7.236 2 2 0 113.625-1.689 11.963 11.963 0 01-.407 10.885 2 2 0 01-1.746 1.02z"/></g></svg>