<svg xmlns="http://www.w3.org/2000/svg" viewBox="0 0 80 15"><path d="M0 0h80v15H0z"/><path fill="#fff" d="M1 1h78v13H1z"/><g><path d="M2 2h76v11H2z"/><path d="M2 2v11h20s3-1.938 3-5.5S22 2 22 2H2" fill="#ABB1AA"/></g><g><path d="M6.235 2.504s-.401 2.332.953 5.644c-.276.35-.788 1.002-1.008 2.257-.422-.828-1.124-5.995.055-7.901z"/><path d="M12.431 5.765s3.035-2.107 3.612-1.254-3.286 3.361-3.612 3.637c.677-.276 1.781-.853 2.559-.853.777 0 1.054.351-.1 1.153-1.154.804-3.086 2.233-5.343 2.233-1.028 0-1.63-.527-1.63-1.28 0-.752.777-3.612 6.848-6.471-1.229.326-8.303 3.687-8.253 8.403 0 1.003 1.304 1.53 1.982 1.53.677 0 1.781-.125 3.11-.753 1.33-.627 7.174-4.339 6.17-5.995-.276-.451-.903-.275-.903-.275s2.834-2.006 1.856-3.336-5.268 1.203-6.296 3.261z"/></g><g><g fill="#fff"><path d="M32 8.091h-2v2h-1V6.083h1v-1h2v1h1v4.008h-1v-2zm0-1.008v-.992h-2v.992h2zM37 7.083h2v2.008h-1v1h-2v-1h-1V6.083h1v-1h3v1.008h-3v2.992h2v-.992h-1V7.083zM41 5.083h3v1h1v1.008h-1v1h-2v2h-1V5.083zm3 2v-.992h-2v.992h2zM47 5.083h1v4h2v1.008h-3V5.083z"/></g></g></svg>