<svg height="10pt" preserveAspectRatio="xMidYMid meet" viewBox="0 0 10 10" width="10pt" xmlns="http://www.w3.org/2000/svg"><text x="50%" y="50%" style="font-family:sans-serif" dominant-baseline="middle" text-anchor="middle" id="_">Loading ...</text><defs><style type="text/css">#_0,#_1,#_2,#_3,#_4,#_5,#_6,#_7,#_8,#_9,#_10,#_11,#_12,#_13{visibility:hidden}</style></defs><g id="_0">><g transform="matrix(.1 0 0 -.1 0 10)"><path d="m40 40v-40h10 10v40 40h-10-10z"/><path d="m0 25v-25h10 10v25 25h-10-10z"/><path d="m80 25v-25h10 10v25 25h-10-10z"/></g></g><g id="_1">><g transform="matrix(.1 0 0 -.1 0 10)"><path d="m40 35v-35h10 10v35 35h-10-10z"/><path d="m0 30v-30h10 10v30 30h-10-10z"/><path d="m80 20v-20h10 10v20 20h-10-10z"/></g></g><g id="_2">><g transform="matrix(.1 0 0 -.1 0 10)"><path d="m40 40v-40h10 10v40 40h-10-10z"/><path d="m0 35v-35h10 10v35 35h-10-10z"/><path d="m80 15v-15h10 10v15 15h-10-10z"/></g></g><g id="_3">><g transform="matrix(.1 0 0 -.1 0 10)"><path d="m40 45v-45h10 10v45 45h-10-10z"/><path d="m0 25v-25h10 10v25 25h-10-10z"/><path d="m80 20v-20h10 10v20 20h-10-10z"/></g></g><g id="_4">><g transform="matrix(.1 0 0 -.1 0 10)"><path d="m40 50v-50h10 10v50 50h-10-10z"/><path d="m80 30v-30h10 10v30 30h-10-10z"/><path d="m0 20v-20h10 10v20 20h-10-10z"/></g></g><g id="_5">><g transform="matrix(.1 0 0 -.1 0 10)"><path d="m40 40v-40h10 10v40 40h-10-10z"/><path d="m80 35v-35h10 10v35 35h-10-10z"/><path d="m0 25v-25h10 10v25 25h-10-10z"/></g></g><g id="_6">><g transform="matrix(.1 0 0 -.1 0 10)"><path d="m80 45v-45h10 10v45 45h-10-10z"/><path d="m0 35v-35h10 10v35 35h-10-10z"/><path d="m40 30v-30h10 10v30 30h-10-10z"/></g></g><g id="_7">><g transform="matrix(.1 0 0 -.1 0 10)"><path d="m0 45v-45h10 10v45 45h-10-10z"/><path d="m80 40v-40h10 10v40 40h-10-10z"/><path d="m40 25v-25h10 10v25 25h-10-10z"/></g></g><g id="_8">><g transform="matrix(.1 0 0 -.1 0 10)"><path d="m0 50v-50h10 10v50 50h-10-10z"/><path d="m80 30v-30h10 10v30 30h-10-10z"/><path d="m40 20v-20h10 10v20 20h-10-10z"/></g></g><g id="_9">><g transform="matrix(.1 0 0 -.1 0 10)"><path d="m0 40v-40h10 10v40 40h-10-10z"/><path d="m80 40v-40h10 10v40 40h-10-10z"/><path d="m40 15v-15h10 10v15 15h-10-10z"/></g></g><g id="_10">><g transform="matrix(.1 0 0 -.1 0 10)"><path d="m80 50v-50h10 10v50 50h-10-10z"/><path d="m0 35v-35h10 10v35 35h-10-10z"/><path d="m40 25v-25h10 10v25 25h-10-10z"/></g></g><g id="_11">><g transform="matrix(.1 0 0 -.1 0 10)"><path d="m80 40v-40h10 10v40 40h-10-10z"/><path d="m0 30v-30h10 10v30 30h-10-10z"/><path d="m40 15v-15h10 10v15 15h-10-10z"/></g></g><g id="_12">><g transform="matrix(.1 0 0 -.1 0 10)"><path d="m80 35v-35h10 10v35 35h-10-10z"/><path d="m0 25v-25h10 10v25 25h-10-10z"/><path d="m40 25v-25h10 10v25 25h-10-10z"/></g></g><g id="_13">><g transform="matrix(.1 0 0 -.1 0 10)"><path d="m40 35v-35h10 10v35 35h-10-10z"/><path d="m80 35v-35h10 10v35 35h-10-10z"/><path d="m0 25v-25h10 10v25 25h-10-10z"/></g></g><defs><style type="text/css">svg {background-color: none} path {fill: black}#_0,#_1,#_2,#_3,#_4,#_5,#_6,#_7,#_8,#_9,#_10,#_11,#_12,#_13{animation:1.4s linear _k infinite}#_0{animation-delay:0s}#_1{animation-delay:0.1s}#_2{animation-delay:0.2s}#_3{animation-delay:0.3s}#_4{animation-delay:0.4s}#_5{animation-delay:0.5s}#_6{animation-delay:0.6s}#_7{animation-delay:0.7s}#_8{animation-delay:0.8s}#_9{animation-delay:0.9s}#_10{animation-delay:1s}#_11{animation-delay:1.1s}#_12{animation-delay:1.2s}#_13{animation-delay:1.3s}@keyframes _k{0%,7.142857%{visibility:visible}7.142929%,100%{visibility:hidden}}#_{visibility:hidden}</style></defs></svg>